sfk_cyclingleg_theta_95_states
version=1
nRows=11
nColumns=53
inDegrees=yes

# SIMM Motion File Header:
name sfk_cyclingleg_theta_95_states
datacolumns 53
datarows 11
otherdata 1
range 1.02093190 1.02261781
endheader
time	/jointset/bb/crank_angle/value	/jointset/bb/crank_angle/speed	/jointset/spindle/pedal_angle_r/value	/jointset/spindle/pedal_angle_r/speed	/jointset/ground_pelvis/pelvis_tilt/value	/jointset/ground_pelvis/pelvis_tilt/speed	/jointset/ground_pelvis/pelvis_list/value	/jointset/ground_pelvis/pelvis_list/speed	/jointset/ground_pelvis/pelvis_rotation/value	/jointset/ground_pelvis/pelvis_rotation/speed	/jointset/ground_pelvis/pelvis_tx/value	/jointset/ground_pelvis/pelvis_tx/speed	/jointset/ground_pelvis/pelvis_ty/value	/jointset/ground_pelvis/pelvis_ty/speed	/jointset/ground_pelvis/pelvis_tz/value	/jointset/ground_pelvis/pelvis_tz/speed	/jointset/hip_r/hip_angle_r/value	/jointset/hip_r/hip_angle_r/speed	/jointset/hip_r/hip_adduction_r/value	/jointset/hip_r/hip_adduction_r/speed	/jointset/hip_r/hip_rotation_r/value	/jointset/hip_r/hip_rotation_r/speed	/jointset/knee_r/knee_angle_r/value	/jointset/knee_r/knee_angle_r/speed	/jointset/knee_r/tib_tx_r/value	/jointset/knee_r/tib_tx_r/speed	/jointset/knee_r/tib_ty_r/value	/jointset/knee_r/tib_ty_r/speed	/jointset/tib_pat_r/pat_angle_r/value	/jointset/tib_pat_r/pat_angle_r/speed	/jointset/tib_pat_r/pat_tx_r/value	/jointset/tib_pat_r/pat_tx_r/speed	/jointset/tib_pat_r/pat_ty_r/value	/jointset/tib_pat_r/pat_ty_r/speed	/jointset/ankle_r/ankle_angle_r/value	/jointset/ankle_r/ankle_angle_r/speed	/jointset/subtalar_r/subtalar_angle_r/value	/jointset/subtalar_r/subtalar_angle_r/speed	/jointset/mtp_r/mtp_angle_r/value	/jointset/mtp_r/mtp_angle_r/speed	/forceset/bifemlh_r/activation	/forceset/bifemlh_r/fiber_length	/forceset/bifemsh_r/activation	/forceset/bifemsh_r/fiber_length	/forceset/glut_max2_r/activation	/forceset/glut_max2_r/fiber_length	/forceset/vas_int_r/activation	/forceset/vas_int_r/fiber_length	/forceset/med_gas_r/activation	/forceset/med_gas_r/fiber_length	/forceset/tib_ant_r/activation	/forceset/tib_ant_r/fiber_length
      1.02093190	   -500.32372768	   -480.13863232	    512.50166060	    490.89106938	      0.00000000	     -0.00000000	      0.00000000	     -0.00000000	     -0.00000000	     -0.00000000	     -0.10000000	      0.00000000	     -0.05000000	     -0.00000000	      0.00000000	     -0.00000000	     43.53619100	   -173.20270352	      4.37911230	     -0.26071599	      1.29248639	     14.40840801	    -53.55022824	    164.62134346	      0.00425272	     -0.01723006	     -0.47404886	      0.04728231	     17.21989265	     -5.78277557	      0.04468356	      0.04661817	     -0.02316365	     -0.00622167	     22.60257483	     19.15583618	     -0.00000000	     -0.00000000	     -0.00000000	      0.00000000	     -0.10600286	      0.12550127	     -0.10600286	      0.16981075	     -0.10600286	      0.13353081	     -0.10600286	      0.12478790	     -0.10600286	      0.14822000	     -0.10600286	      0.11612056
      1.02098688	   -500.35012315	   -480.13863232	    512.52864480	    490.80446509	      0.00000000	     -0.00000000	      0.00000000	     -0.00000000	     -0.00000000	     -0.00000000	     -0.10000000	      0.00000000	     -0.05000000	     -0.00000000	      0.00000000	     -0.00000000	     43.52667130	   -173.12780725	      4.37909796	     -0.26078789	      1.29327817	     14.39653831	    -53.54118252	    164.46570110	      0.00425178	     -0.01722115	     -0.47404626	      0.04723293	     17.21957479	     -5.78116299	      0.04468612	      0.04657096	     -0.02316399	     -0.00621617	     22.60362777	     19.15032703	     -0.00000000	     -0.00000000	     -0.00000000	      0.00000000	     -0.10600994	      0.12549580	     -0.10600994	      0.16981599	     -0.10600994	      0.13352362	     -0.10600994	      0.12478069	     -0.10600994	      0.14821848	     -0.10600994	      0.11611964
      1.02126175	   -500.48210048	   -480.13863232	    512.66349421	    490.36978764	      0.00000000	     -0.00000000	      0.00000000	     -0.00000000	     -0.00000000	     -0.00000000	     -0.10000000	      0.00000000	     -0.05000000	     -0.00000000	      0.00000000	     -0.00000000	     43.47913468	   -172.75188184	      4.37902623	     -0.26112998	      1.29722721	     14.33692584	    -53.49608246	    163.68512833	      0.00424705	     -0.01717600	     -0.47403331	      0.04698553	     17.21798683	     -5.77287250	      0.04469889	      0.04633441	     -0.02316570	     -0.00618859	     22.60888782	     19.12203768	     -0.00000000	     -0.00000000	     -0.00000000	      0.00000000	     -0.10604533	      0.12546843	     -0.10604533	      0.16984215	     -0.10604533	      0.13348768	     -0.10604533	      0.12474474	     -0.10604533	      0.14822235	     -0.10604533	      0.11611505
      1.02133610	   -500.51779962	   -480.13863232	    512.69994967	    490.25173477	      0.00000000	     -0.00000000	      0.00000000	     -0.00000000	     -0.00000000	     -0.00000000	     -0.10000000	      0.00000000	     -0.05000000	     -0.00000000	      0.00000000	     -0.00000000	     43.46629407	   -172.64978214	      4.37900681	     -0.26121754	      1.29829258	     14.32072525	    -53.48392006	    163.47331085	      0.00424577	     -0.01716361	     -0.47402982	      0.04691846	     17.21755769	     -5.77056464	      0.04470233	      0.04627028	     -0.02316616	     -0.00618110	     22.61030929	     19.11417217	     -0.00000000	     -0.00000000	     -0.00000000	      0.00000000	     -0.10605490	      0.12546102	     -0.10605490	      0.16984920	     -0.10605490	      0.13347797	     -0.10605490	      0.12473504	     -0.10605490	      0.14822529	     -0.10605490	      0.11611381
      1.02159934	   -500.64419235	   -480.13863232	    512.82894942	    489.83213925	      0.00000000	     -0.00000000	      0.00000000	     -0.00000000	     -0.00000000	     -0.00000000	     -0.10000000	      0.00000000	     -0.05000000	     -0.00000000	      0.00000000	     -0.00000000	     43.42089309	   -172.28687983	      4.37893801	     -0.26151043	      1.30205483	     14.26310715	    -53.44098593	    162.72105176	      0.00424126	     -0.01711914	     -0.47401750	      0.04668054	     17.21603973	     -5.76216929	      0.04471448	      0.04604266	     -0.02316778	     -0.00615448	     22.61533721	     19.08559156	     -0.00000000	     -0.00000000	     -0.00000000	      0.00000000	     -0.10608880	      0.12543479	     -0.10608880	      0.16987411	     -0.10608880	      0.13344362	     -0.10608880	      0.12470080	     -0.10608880	      0.14824031	     -0.10608880	      0.11610942
      1.02185121	   -500.76512320	   -480.13863232	    512.95227093	    489.42829145	      0.00000000	     -0.00000000	      0.00000000	     -0.00000000	     -0.00000000	     -0.00000000	     -0.10000000	      0.00000000	     -0.05000000	     -0.00000000	      0.00000000	     -0.00000000	     43.37754373	   -171.93758618	      4.37887211	     -0.26176570	      1.30564024	     14.20759840	    -53.40009294	    161.99790888	      0.00423695	     -0.01707571	     -0.47400577	      0.04645219	     17.21458948	     -5.75380814	      0.04472605	      0.04582410	     -0.02316933	     -0.00612887	     22.62014067	     19.05717297	     -0.00000000	     -0.00000000	     -0.00000000	      0.00000000	     -0.10612122	      0.12540968	     -0.10612122	      0.16989783	     -0.10612122	      0.13341080	     -0.10612122	      0.12466816	     -0.10612122	      0.14825397	     -0.10612122	      0.11610522
      1.02214520	   -500.90627778	   -480.13863232	    513.09608690	    488.95394835	      0.00000000	     -0.00000000	      0.00000000	     -0.00000000	     -0.00000000	     -0.00000000	     -0.10000000	      0.00000000	     -0.05000000	     -0.00000000	      0.00000000	     -0.00000000	     43.32705654	   -171.52730970	      4.37879511	     -0.26203271	      1.30980751	     14.14233435	    -53.35259222	    161.14962937	      0.00423194	     -0.01702394	     -0.47399216	      0.04618477	     17.21289942	     -5.74364053	      0.04473949	      0.04556804	     -0.02317112	     -0.00609879	     22.62573820	     19.02266907	     -0.00000000	     -0.00000000	     -0.00000000	      0.00000000	     -0.10615907	      0.12538035	     -0.10615907	      0.16992540	     -0.10615907	      0.13337255	     -0.10615907	      0.12463022	     -0.10615907	      0.14835663	     -0.10615907	      0.11610033
      1.02217459	   -500.92039323	   -480.13863232	    513.11046082	    488.90633841	      0.00000000	     -0.00000000	      0.00000000	     -0.00000000	     -0.00000000	     -0.00000000	     -0.10000000	      0.00000000	     -0.05000000	     -0.00000000	      0.00000000	     -0.00000000	     43.32201446	   -171.48612966	      4.37878741	     -0.26205758	      1.31022318	     14.13577989	    -53.34785588	    161.06455211	      0.00423144	     -0.01701870	     -0.47399080	      0.04615798	     17.21273058	     -5.74259951	      0.04474083	      0.04554238	     -0.02317130	     -0.00609577	     22.62629739	     19.01913949	     -0.00000000	     -0.00000000	     -0.00000000	      0.00000000	     -0.10616286	      0.12537742	     -0.10616286	      0.16992815	     -0.10616286	      0.13336873	     -0.10616286	      0.12462644	     -0.10616286	      0.14830583	     -0.10616286	      0.11609984
      1.02223404	   -500.94893706	   -480.13863232	    513.13952301	    488.80996539	      0.00000000	     -0.00000000	      0.00000000	     -0.00000000	     -0.00000000	     -0.00000000	     -0.10000000	      0.00000000	     -0.05000000	     -0.00000000	      0.00000000	     -0.00000000	     43.31182224	   -171.40277199	      4.37877183	     -0.26210685	      1.31106315	     14.12251006	    -53.33828585	    160.89237296	      0.00423043	     -0.01700806	     -0.47398806	      0.04610377	     17.21238925	     -5.74048089	      0.04474353	      0.04549045	     -0.02317167	     -0.00608967	     22.62742785	     19.01195801	     -0.00000000	     -0.00000000	     -0.00000000	      0.00000000	     -0.10617051	      0.12537149	     -0.10617051	      0.16993370	     -0.10617051	      0.13336101	     -0.10617051	      0.12461880	     -0.10617051	      0.14829584	     -0.10617051	      0.11609885
      1.02236205	   -501.01039924	   -480.13863232	    513.20208190	    488.60200526	      0.00000000	     -0.00000000	      0.00000000	     -0.00000000	     -0.00000000	     -0.00000000	     -0.10000000	      0.00000000	     -0.05000000	     -0.00000000	      0.00000000	     -0.00000000	     43.28989261	   -171.22289645	      4.37873827	     -0.26220829	      1.31286913	     14.09386572	    -53.31771390	    160.52099697	      0.00422825	     -0.01698500	     -0.47398216	      0.04598691	     17.21165471	     -5.73585755	      0.04474935	      0.04537850	     -0.02317244	     -0.00607648	     22.62986055	     18.99629396	     -0.00000000	     -0.00000000	     -0.00000000	      0.00000000	     -0.10618700	      0.12535871	     -0.10618700	      0.16994564	     -0.10618700	      0.13334439	     -0.10618700	      0.12460236	     -0.10618700	      0.14829348	     -0.10618700	      0.11609672
      1.02261781	   -501.13319666	   -480.13863232	    513.32699055	    488.18469451	      0.00000000	     -0.00000000	      0.00000000	     -0.00000000	     -0.00000000	     -0.00000000	     -0.10000000	      0.00000000	     -0.05000000	     -0.00000000	      0.00000000	     -0.00000000	     43.24614776	   -170.86194049	      4.37867119	     -0.26239197	      1.31646634	     14.03634528	    -53.27675513	    159.77643241	      0.00422392	     -0.01693826	     -0.47397043	      0.04575289	     17.21018895	     -5.72636865	      0.04476092	      0.04515423	     -0.02317399	     -0.00605004	     22.63471485	     18.96417647	     -0.00000000	     -0.00000000	     -0.00000000	      0.00000000	     -0.10621992	      0.12533317	     -0.10621992	      0.16996942	     -0.10621992	      0.13331121	     -0.10621992	      0.12456961	     -0.10621992	      0.14829843	     -0.10621992	      0.11609247
